<?xml version="1.0" encoding="UTF-8" standalone="no"?>
<!DOCTYPE svg PUBLIC "-//W3C//DTD SVG 1.1//EN"
 "http://www.w3.org/Graphics/SVG/1.1/DTD/svg11.dtd">
<!-- Generated by graphviz version 2.38.0 (20140413.2041)
 -->
<!-- Title: %3 Pages: 1 -->
<svg width="348pt" height="260pt"
 viewBox="0.00 0.00 348.00 260.00" xmlns="http://www.w3.org/2000/svg" xmlns:xlink="http://www.w3.org/1999/xlink">
<g id="graph0" class="graph" transform="scale(1 1) rotate(0) translate(4 256)">
<title>%3</title>
<polygon fill="white" stroke="none" points="-4,4 -4,-256 344,-256 344,4 -4,4"/>
<!-- R -->
<g id="node1" class="node"><title>R</title>
<polygon fill="none" stroke="black" points="54,-180 0,-180 0,-144 54,-144 54,-180"/>
<text text-anchor="middle" x="27" y="-158.3" font-family="Times,serif" font-size="14.00">R</text>
</g>
<!-- knitr -->
<g id="node2" class="node"><title>knitr</title>
<polygon fill="none" stroke="black" points="146.5,-252 92.5,-252 92.5,-216 146.5,-216 146.5,-252"/>
<text text-anchor="middle" x="119.5" y="-230.3" font-family="Times,serif" font-size="14.00">knitr</text>
</g>
<!-- R&#45;&gt;knitr -->
<g id="edge1" class="edge"><title>R&#45;&gt;knitr</title>
<path fill="none" stroke="black" d="M50.837,-180.169C61.9838,-189.037 75.5581,-199.836 87.6146,-209.428"/>
<polygon fill="black" stroke="black" points="85.6657,-212.35 95.6703,-215.837 90.0238,-206.872 85.6657,-212.35"/>
</g>
<!-- Sweave -->
<g id="node6" class="node"><title>Sweave</title>
<polygon fill="none" stroke="black" points="149,-180 90,-180 90,-144 149,-144 149,-180"/>
<text text-anchor="middle" x="119.5" y="-158.3" font-family="Times,serif" font-size="14.00">Sweave</text>
</g>
<!-- R&#45;&gt;Sweave -->
<g id="edge6" class="edge"><title>R&#45;&gt;Sweave</title>
<path fill="none" stroke="black" d="M54.1763,-162C62.1186,-162 71.0204,-162 79.6102,-162"/>
<polygon fill="black" stroke="black" points="79.8478,-165.5 89.8478,-162 79.8477,-158.5 79.8478,-165.5"/>
</g>
<!-- Latex -->
<g id="node7" class="node"><title>Latex</title>
<polygon fill="none" stroke="black" points="146.5,-108 92.5,-108 92.5,-72 146.5,-72 146.5,-108"/>
<text text-anchor="middle" x="119.5" y="-86.3" font-family="Times,serif" font-size="14.00">Latex</text>
</g>
<!-- R&#45;&gt;Latex -->
<g id="edge8" class="edge"><title>R&#45;&gt;Latex</title>
<path fill="none" stroke="black" d="M50.837,-143.831C61.9838,-134.963 75.5581,-124.164 87.6146,-114.572"/>
<polygon fill="black" stroke="black" points="90.0238,-117.128 95.6703,-108.163 85.6657,-111.65 90.0238,-117.128"/>
</g>
<!-- Rmd -->
<g id="node3" class="node"><title>Rmd</title>
<polygon fill="none" stroke="black" points="244.5,-252 190.5,-252 190.5,-216 244.5,-216 244.5,-252"/>
<text text-anchor="middle" x="217.5" y="-230.3" font-family="Times,serif" font-size="14.00">Rmd</text>
</g>
<!-- knitr&#45;&gt;Rmd -->
<g id="edge2" class="edge"><title>knitr&#45;&gt;Rmd</title>
<path fill="none" stroke="black" d="M146.732,-234C156.998,-234 168.948,-234 180.027,-234"/>
<polygon fill="black" stroke="black" points="180.299,-237.5 190.299,-234 180.299,-230.5 180.299,-237.5"/>
</g>
<!-- Rnw -->
<g id="node5" class="node"><title>Rnw</title>
<polygon fill="none" stroke="black" points="244.5,-180 190.5,-180 190.5,-144 244.5,-144 244.5,-180"/>
<text text-anchor="middle" x="217.5" y="-158.3" font-family="Times,serif" font-size="14.00">Rnw</text>
</g>
<!-- knitr&#45;&gt;Rnw -->
<g id="edge4" class="edge"><title>knitr&#45;&gt;Rnw</title>
<path fill="none" stroke="black" d="M144.725,-215.831C156.663,-206.878 171.226,-195.956 184.106,-186.295"/>
<polygon fill="black" stroke="black" points="186.383,-188.963 192.283,-180.163 182.183,-183.363 186.383,-188.963"/>
</g>
<!-- PDF -->
<g id="node4" class="node"><title>PDF</title>
<polygon fill="none" stroke="black" points="340,-216 286,-216 286,-180 340,-180 340,-216"/>
<text text-anchor="middle" x="313" y="-194.3" font-family="Times,serif" font-size="14.00">PDF</text>
</g>
<!-- Rmd&#45;&gt;PDF -->
<g id="edge3" class="edge"><title>Rmd&#45;&gt;PDF</title>
<path fill="none" stroke="black" d="M244.545,-223.972C254.391,-220.181 265.773,-215.799 276.35,-211.726"/>
<polygon fill="black" stroke="black" points="277.696,-214.959 285.77,-208.099 275.181,-208.426 277.696,-214.959"/>
</g>
<!-- Rnw&#45;&gt;PDF -->
<g id="edge5" class="edge"><title>Rnw&#45;&gt;PDF</title>
<path fill="none" stroke="black" d="M244.545,-172.028C254.391,-175.819 265.773,-180.201 276.35,-184.274"/>
<polygon fill="black" stroke="black" points="275.181,-187.574 285.77,-187.901 277.696,-181.041 275.181,-187.574"/>
</g>
<!-- Sweave&#45;&gt;Rnw -->
<g id="edge7" class="edge"><title>Sweave&#45;&gt;Rnw</title>
<path fill="none" stroke="black" d="M149.043,-162C158.724,-162 169.676,-162 179.896,-162"/>
<polygon fill="black" stroke="black" points="180.198,-165.5 190.198,-162 180.198,-158.5 180.198,-165.5"/>
</g>
<!-- listings -->
<g id="node8" class="node"><title>listings</title>
<polygon fill="none" stroke="black" points="245.5,-108 189.5,-108 189.5,-72 245.5,-72 245.5,-108"/>
<text text-anchor="middle" x="217.5" y="-86.3" font-family="Times,serif" font-size="14.00">listings</text>
</g>
<!-- Latex&#45;&gt;listings -->
<g id="edge9" class="edge"><title>Latex&#45;&gt;listings</title>
<path fill="none" stroke="black" d="M146.732,-90C156.745,-90 168.361,-90 179.208,-90"/>
<polygon fill="black" stroke="black" points="179.295,-93.5001 189.295,-90 179.295,-86.5001 179.295,-93.5001"/>
</g>
<!-- verbatim -->
<g id="node10" class="node"><title>verbatim</title>
<polygon fill="none" stroke="black" points="250,-36 185,-36 185,-0 250,-0 250,-36"/>
<text text-anchor="middle" x="217.5" y="-14.3" font-family="Times,serif" font-size="14.00">verbatim</text>
</g>
<!-- Latex&#45;&gt;verbatim -->
<g id="edge11" class="edge"><title>Latex&#45;&gt;verbatim</title>
<path fill="none" stroke="black" d="M144.725,-71.8314C156.663,-62.8779 171.226,-51.9558 184.106,-42.2955"/>
<polygon fill="black" stroke="black" points="186.383,-44.9629 192.283,-36.1628 182.183,-39.3629 186.383,-44.9629"/>
</g>
<!-- lstset -->
<g id="node9" class="node"><title>lstset</title>
<polygon fill="none" stroke="black" points="340,-108 286,-108 286,-72 340,-72 340,-108"/>
<text text-anchor="middle" x="313" y="-86.3" font-family="Times,serif" font-size="14.00">lstset</text>
</g>
<!-- listings&#45;&gt;lstset -->
<g id="edge10" class="edge"><title>listings&#45;&gt;lstset</title>
<path fill="none" stroke="black" d="M245.544,-90C254.991,-90 265.752,-90 275.822,-90"/>
<polygon fill="black" stroke="black" points="275.982,-93.5001 285.982,-90 275.982,-86.5001 275.982,-93.5001"/>
</g>
</g>
</svg>
