<?xml version="1.0" encoding="UTF-8" standalone="no"?>
<!DOCTYPE svg PUBLIC "-//W3C//DTD SVG 1.1//EN"
 "http://www.w3.org/Graphics/SVG/1.1/DTD/svg11.dtd">
<!-- Generated by graphviz version 2.38.0 (20140413.2041)
 -->
<!-- Title: %3 Pages: 1 -->
<svg width="348pt" height="332pt"
 viewBox="0.00 0.00 348.00 332.00" xmlns="http://www.w3.org/2000/svg" xmlns:xlink="http://www.w3.org/1999/xlink">
<g id="graph0" class="graph" transform="scale(1 1) rotate(0) translate(4 328)">
<title>%3</title>
<polygon fill="white" stroke="none" points="-4,4 -4,-328 344,-328 344,4 -4,4"/>
<!-- R -->
<g id="node1" class="node"><title>R</title>
<polygon fill="none" stroke="black" points="54,-216 0,-216 0,-180 54,-180 54,-216"/>
<text text-anchor="middle" x="27" y="-194.3" font-family="Times,serif" font-size="14.00">R</text>
</g>
<!-- knitr -->
<g id="node2" class="node"><title>knitr</title>
<polygon fill="none" stroke="black" points="146.5,-324 92.5,-324 92.5,-288 146.5,-288 146.5,-324"/>
<text text-anchor="middle" x="119.5" y="-302.3" font-family="Times,serif" font-size="14.00">knitr</text>
</g>
<!-- R&#45;&gt;knitr -->
<g id="edge1" class="edge"><title>R&#45;&gt;knitr</title>
<path fill="none" stroke="black" d="M43.3521,-216.321C58.0673,-233.881 80.418,-260.554 96.9215,-280.249"/>
<polygon fill="black" stroke="black" points="94.2692,-282.533 103.375,-287.95 99.6345,-278.037 94.2692,-282.533"/>
</g>
<!-- Sweave -->
<g id="node6" class="node"><title>Sweave</title>
<polygon fill="none" stroke="black" points="149,-252 90,-252 90,-216 149,-216 149,-252"/>
<text text-anchor="middle" x="119.5" y="-230.3" font-family="Times,serif" font-size="14.00">Sweave</text>
</g>
<!-- R&#45;&gt;Sweave -->
<g id="edge6" class="edge"><title>R&#45;&gt;Sweave</title>
<path fill="none" stroke="black" d="M54.1763,-208.413C62.3804,-211.676 71.6084,-215.347 80.4587,-218.868"/>
<polygon fill="black" stroke="black" points="79.2622,-222.158 89.8478,-222.602 81.8496,-215.654 79.2622,-222.158"/>
</g>
<!-- Org -->
<g id="node7" class="node"><title>Org</title>
<polygon fill="none" stroke="black" points="146.5,-180 92.5,-180 92.5,-144 146.5,-144 146.5,-180"/>
<text text-anchor="middle" x="119.5" y="-158.3" font-family="Times,serif" font-size="14.00">Org</text>
</g>
<!-- R&#45;&gt;Org -->
<g id="edge8" class="edge"><title>R&#45;&gt;Org</title>
<path fill="none" stroke="black" d="M54.1763,-187.587C63.1814,-184.005 73.4201,-179.932 83.0389,-176.106"/>
<polygon fill="black" stroke="black" points="84.3843,-179.338 92.3825,-172.389 81.797,-172.833 84.3843,-179.338"/>
</g>
<!-- Latex -->
<g id="node9" class="node"><title>Latex</title>
<polygon fill="none" stroke="black" points="146.5,-108 92.5,-108 92.5,-72 146.5,-72 146.5,-108"/>
<text text-anchor="middle" x="119.5" y="-86.3" font-family="Times,serif" font-size="14.00">Latex</text>
</g>
<!-- R&#45;&gt;Latex -->
<g id="edge11" class="edge"><title>R&#45;&gt;Latex</title>
<path fill="none" stroke="black" d="M43.3521,-179.679C58.0673,-162.119 80.418,-135.446 96.9215,-115.751"/>
<polygon fill="black" stroke="black" points="99.6345,-117.963 103.375,-108.05 94.2692,-113.467 99.6345,-117.963"/>
</g>
<!-- Rmd -->
<g id="node3" class="node"><title>Rmd</title>
<polygon fill="none" stroke="black" points="244.5,-324 190.5,-324 190.5,-288 244.5,-288 244.5,-324"/>
<text text-anchor="middle" x="217.5" y="-302.3" font-family="Times,serif" font-size="14.00">Rmd</text>
</g>
<!-- knitr&#45;&gt;Rmd -->
<g id="edge2" class="edge"><title>knitr&#45;&gt;Rmd</title>
<path fill="none" stroke="black" d="M146.732,-306C156.998,-306 168.948,-306 180.027,-306"/>
<polygon fill="black" stroke="black" points="180.299,-309.5 190.299,-306 180.299,-302.5 180.299,-309.5"/>
</g>
<!-- Rnw -->
<g id="node5" class="node"><title>Rnw</title>
<polygon fill="none" stroke="black" points="244.5,-252 190.5,-252 190.5,-216 244.5,-216 244.5,-252"/>
<text text-anchor="middle" x="217.5" y="-230.3" font-family="Times,serif" font-size="14.00">Rnw</text>
</g>
<!-- knitr&#45;&gt;Rnw -->
<g id="edge4" class="edge"><title>knitr&#45;&gt;Rnw</title>
<path fill="none" stroke="black" d="M144.725,-287.831C156.663,-278.878 171.226,-267.956 184.106,-258.295"/>
<polygon fill="black" stroke="black" points="186.383,-260.963 192.283,-252.163 182.183,-255.363 186.383,-260.963"/>
</g>
<!-- PDF -->
<g id="node4" class="node"><title>PDF</title>
<polygon fill="none" stroke="black" points="340,-252 286,-252 286,-216 340,-216 340,-252"/>
<text text-anchor="middle" x="313" y="-230.3" font-family="Times,serif" font-size="14.00">PDF</text>
</g>
<!-- Rmd&#45;&gt;PDF -->
<g id="edge3" class="edge"><title>Rmd&#45;&gt;PDF</title>
<path fill="none" stroke="black" d="M242.094,-287.831C253.721,-278.878 267.905,-267.956 280.45,-258.295"/>
<polygon fill="black" stroke="black" points="282.626,-261.037 288.414,-252.163 278.355,-255.491 282.626,-261.037"/>
</g>
<!-- Rnw&#45;&gt;PDF -->
<g id="edge5" class="edge"><title>Rnw&#45;&gt;PDF</title>
<path fill="none" stroke="black" d="M244.545,-234C254.19,-234 265.309,-234 275.701,-234"/>
<polygon fill="black" stroke="black" points="275.77,-237.5 285.77,-234 275.77,-230.5 275.77,-237.5"/>
</g>
<!-- Sweave&#45;&gt;Rnw -->
<g id="edge7" class="edge"><title>Sweave&#45;&gt;Rnw</title>
<path fill="none" stroke="black" d="M149.043,-234C158.724,-234 169.676,-234 179.896,-234"/>
<polygon fill="black" stroke="black" points="180.198,-237.5 190.198,-234 180.198,-230.5 180.198,-237.5"/>
</g>
<!-- Babel -->
<g id="node8" class="node"><title>Babel</title>
<polygon fill="none" stroke="black" points="244.5,-180 190.5,-180 190.5,-144 244.5,-144 244.5,-180"/>
<text text-anchor="middle" x="217.5" y="-158.3" font-family="Times,serif" font-size="14.00">Babel</text>
</g>
<!-- Org&#45;&gt;Babel -->
<g id="edge9" class="edge"><title>Org&#45;&gt;Babel</title>
<path fill="none" stroke="black" d="M146.732,-162C156.998,-162 168.948,-162 180.027,-162"/>
<polygon fill="black" stroke="black" points="180.299,-165.5 190.299,-162 180.299,-158.5 180.299,-165.5"/>
</g>
<!-- Babel&#45;&gt;PDF -->
<g id="edge10" class="edge"><title>Babel&#45;&gt;PDF</title>
<path fill="none" stroke="black" d="M242.094,-180.169C253.721,-189.122 267.905,-200.044 280.45,-209.705"/>
<polygon fill="black" stroke="black" points="278.355,-212.509 288.414,-215.837 282.626,-206.963 278.355,-212.509"/>
</g>
<!-- listings -->
<g id="node10" class="node"><title>listings</title>
<polygon fill="none" stroke="black" points="245.5,-108 189.5,-108 189.5,-72 245.5,-72 245.5,-108"/>
<text text-anchor="middle" x="217.5" y="-86.3" font-family="Times,serif" font-size="14.00">listings</text>
</g>
<!-- Latex&#45;&gt;listings -->
<g id="edge12" class="edge"><title>Latex&#45;&gt;listings</title>
<path fill="none" stroke="black" d="M146.732,-90C156.745,-90 168.361,-90 179.208,-90"/>
<polygon fill="black" stroke="black" points="179.295,-93.5001 189.295,-90 179.295,-86.5001 179.295,-93.5001"/>
</g>
<!-- verbatim -->
<g id="node12" class="node"><title>verbatim</title>
<polygon fill="none" stroke="black" points="250,-36 185,-36 185,-0 250,-0 250,-36"/>
<text text-anchor="middle" x="217.5" y="-14.3" font-family="Times,serif" font-size="14.00">verbatim</text>
</g>
<!-- Latex&#45;&gt;verbatim -->
<g id="edge14" class="edge"><title>Latex&#45;&gt;verbatim</title>
<path fill="none" stroke="black" d="M144.725,-71.8314C156.663,-62.8779 171.226,-51.9558 184.106,-42.2955"/>
<polygon fill="black" stroke="black" points="186.383,-44.9629 192.283,-36.1628 182.183,-39.3629 186.383,-44.9629"/>
</g>
<!-- lstset -->
<g id="node11" class="node"><title>lstset</title>
<polygon fill="none" stroke="black" points="340,-108 286,-108 286,-72 340,-72 340,-108"/>
<text text-anchor="middle" x="313" y="-86.3" font-family="Times,serif" font-size="14.00">lstset</text>
</g>
<!-- listings&#45;&gt;lstset -->
<g id="edge13" class="edge"><title>listings&#45;&gt;lstset</title>
<path fill="none" stroke="black" d="M245.544,-90C254.991,-90 265.752,-90 275.822,-90"/>
<polygon fill="black" stroke="black" points="275.982,-93.5001 285.982,-90 275.982,-86.5001 275.982,-93.5001"/>
</g>
</g>
</svg>
