<?xml version="1.0" encoding="UTF-8" standalone="no"?>
<!DOCTYPE svg PUBLIC "-//W3C//DTD SVG 1.1//EN"
 "http://www.w3.org/Graphics/SVG/1.1/DTD/svg11.dtd">
<!-- Generated by graphviz version 2.38.0 (20140413.2041)
 -->
<!-- Title: %3 Pages: 1 -->
<svg width="62pt" height="188pt"
 viewBox="0.00 0.00 62.00 188.00" xmlns="http://www.w3.org/2000/svg" xmlns:xlink="http://www.w3.org/1999/xlink">
<g id="graph0" class="graph" transform="scale(1 1) rotate(0) translate(4 184)">
<title>%3</title>
<polygon fill="white" stroke="none" points="-4,4 -4,-184 58,-184 58,4 -4,4"/>
<!-- R -->
<g id="node1" class="node"><title>R</title>
<polygon fill="none" stroke="black" points="54,-180 0,-180 0,-144 54,-144 54,-180"/>
<text text-anchor="middle" x="27" y="-158.3" font-family="Times,serif" font-size="14.00">R</text>
</g>
<!-- knitr -->
<g id="node2" class="node"><title>knitr</title>
<polygon fill="none" stroke="black" points="54,-108 0,-108 0,-72 54,-72 54,-108"/>
<text text-anchor="middle" x="27" y="-86.3" font-family="Times,serif" font-size="14.00">knitr</text>
</g>
<!-- R&#45;&gt;knitr -->
<g id="edge1" class="edge"><title>R&#45;&gt;knitr</title>
<path fill="none" stroke="black" d="M27,-143.954C27,-135.407 27,-126.861 27,-118.314"/>
<polygon fill="black" stroke="black" points="30.5001,-118.281 27,-108.281 23.5001,-118.281 30.5001,-118.281"/>
</g>
<!-- Rmd -->
<g id="node3" class="node"><title>Rmd</title>
<polygon fill="none" stroke="black" points="54,-36 0,-36 0,-0 54,-0 54,-36"/>
<text text-anchor="middle" x="27" y="-14.3" font-family="Times,serif" font-size="14.00">Rmd</text>
</g>
<!-- knitr&#45;&gt;Rmd -->
<g id="edge2" class="edge"><title>knitr&#45;&gt;Rmd</title>
<path fill="none" stroke="black" d="M27,-71.9539C27,-63.4073 27,-54.8607 27,-46.3142"/>
<polygon fill="black" stroke="black" points="30.5001,-46.2812 27,-36.2812 23.5001,-46.2813 30.5001,-46.2812"/>
</g>
</g>
</svg>
