<?xml version="1.0" encoding="UTF-8" standalone="no"?>
<!DOCTYPE svg PUBLIC "-//W3C//DTD SVG 1.1//EN"
 "http://www.w3.org/Graphics/SVG/1.1/DTD/svg11.dtd">
<!-- Generated by graphviz version 2.38.0 (20140413.2041)
 -->
<!-- Title: %3 Pages: 1 -->
<svg width="332pt" height="116pt"
 viewBox="0.00 0.00 332.00 116.00" xmlns="http://www.w3.org/2000/svg" xmlns:xlink="http://www.w3.org/1999/xlink">
<g id="graph0" class="graph" transform="scale(1 1) rotate(0) translate(4 112)">
<title>%3</title>
<polygon fill="white" stroke="none" points="-4,4 -4,-112 328,-112 328,4 -4,4"/>
<!-- R -->
<g id="node1" class="node"><title>R</title>
<polygon fill="none" stroke="black" points="54,-72 0,-72 0,-36 54,-36 54,-72"/>
<text text-anchor="middle" x="27" y="-50.3" font-family="Times,serif" font-size="14.00">R</text>
</g>
<!-- knitr -->
<g id="node2" class="node"><title>knitr</title>
<polygon fill="none" stroke="black" points="144,-108 90,-108 90,-72 144,-72 144,-108"/>
<text text-anchor="middle" x="117" y="-86.3" font-family="Times,serif" font-size="14.00">knitr</text>
</g>
<!-- R&#45;&gt;knitr -->
<g id="edge1" class="edge"><title>R&#45;&gt;knitr</title>
<path fill="none" stroke="black" d="M54.4029,-64.8012C62.5689,-68.1418 71.703,-71.8785 80.3848,-75.4301"/>
<polygon fill="black" stroke="black" points="79.3383,-78.7835 89.919,-79.3305 81.9887,-72.3047 79.3383,-78.7835"/>
</g>
<!-- Latex -->
<g id="node5" class="node"><title>Latex</title>
<polygon fill="none" stroke="black" points="144,-36 90,-36 90,-0 144,-0 144,-36"/>
<text text-anchor="middle" x="117" y="-14.3" font-family="Times,serif" font-size="14.00">Latex</text>
</g>
<!-- R&#45;&gt;Latex -->
<g id="edge4" class="edge"><title>R&#45;&gt;Latex</title>
<path fill="none" stroke="black" d="M54.4029,-43.1988C62.5689,-39.8582 71.703,-36.1215 80.3848,-32.5699"/>
<polygon fill="black" stroke="black" points="81.9887,-35.6953 89.919,-28.6695 79.3383,-29.2165 81.9887,-35.6953"/>
</g>
<!-- Rmd -->
<g id="node3" class="node"><title>Rmd</title>
<polygon fill="none" stroke="black" points="234,-108 180,-108 180,-72 234,-72 234,-108"/>
<text text-anchor="middle" x="207" y="-86.3" font-family="Times,serif" font-size="14.00">Rmd</text>
</g>
<!-- knitr&#45;&gt;Rmd -->
<g id="edge2" class="edge"><title>knitr&#45;&gt;Rmd</title>
<path fill="none" stroke="black" d="M144.403,-90C152.393,-90 161.311,-90 169.824,-90"/>
<polygon fill="black" stroke="black" points="169.919,-93.5001 179.919,-90 169.919,-86.5001 169.919,-93.5001"/>
</g>
<!-- PDF -->
<g id="node4" class="node"><title>PDF</title>
<polygon fill="none" stroke="black" points="324,-108 270,-108 270,-72 324,-72 324,-108"/>
<text text-anchor="middle" x="297" y="-86.3" font-family="Times,serif" font-size="14.00">PDF</text>
</g>
<!-- Rmd&#45;&gt;PDF -->
<g id="edge3" class="edge"><title>Rmd&#45;&gt;PDF</title>
<path fill="none" stroke="black" d="M234.403,-90C242.393,-90 251.311,-90 259.824,-90"/>
<polygon fill="black" stroke="black" points="259.919,-93.5001 269.919,-90 259.919,-86.5001 259.919,-93.5001"/>
</g>
<!-- listing -->
<g id="node6" class="node"><title>listing</title>
<polygon fill="none" stroke="black" points="234,-36 180,-36 180,-0 234,-0 234,-36"/>
<text text-anchor="middle" x="207" y="-14.3" font-family="Times,serif" font-size="14.00">listing</text>
</g>
<!-- Latex&#45;&gt;listing -->
<g id="edge5" class="edge"><title>Latex&#45;&gt;listing</title>
<path fill="none" stroke="black" d="M144.403,-18C152.393,-18 161.311,-18 169.824,-18"/>
<polygon fill="black" stroke="black" points="169.919,-21.5001 179.919,-18 169.919,-14.5001 169.919,-21.5001"/>
</g>
</g>
</svg>
