<?xml version="1.0" encoding="UTF-8" standalone="no"?>
<!DOCTYPE svg PUBLIC "-//W3C//DTD SVG 1.1//EN"
 "http://www.w3.org/Graphics/SVG/1.1/DTD/svg11.dtd">
<!-- Generated by graphviz version 2.38.0 (20140413.2041)
 -->
<!-- Title: %3 Pages: 1 -->
<svg width="343pt" height="188pt"
 viewBox="0.00 0.00 343.00 188.00" xmlns="http://www.w3.org/2000/svg" xmlns:xlink="http://www.w3.org/1999/xlink">
<g id="graph0" class="graph" transform="scale(1 1) rotate(0) translate(4 184)">
<title>%3</title>
<polygon fill="white" stroke="none" points="-4,4 -4,-184 339,-184 339,4 -4,4"/>
<!-- R -->
<g id="node1" class="node"><title>R</title>
<polygon fill="none" stroke="black" points="54,-144 0,-144 0,-108 54,-108 54,-144"/>
<text text-anchor="middle" x="27" y="-122.3" font-family="Times,serif" font-size="14.00">R</text>
</g>
<!-- knitr -->
<g id="node2" class="node"><title>knitr</title>
<polygon fill="none" stroke="black" points="144,-180 90,-180 90,-144 144,-144 144,-180"/>
<text text-anchor="middle" x="117" y="-158.3" font-family="Times,serif" font-size="14.00">knitr</text>
</g>
<!-- R&#45;&gt;knitr -->
<g id="edge1" class="edge"><title>R&#45;&gt;knitr</title>
<path fill="none" stroke="black" d="M54.4029,-136.801C62.5689,-140.142 71.703,-143.878 80.3848,-147.43"/>
<polygon fill="black" stroke="black" points="79.3383,-150.784 89.919,-151.33 81.9887,-144.305 79.3383,-150.784"/>
</g>
<!-- Latex -->
<g id="node5" class="node"><title>Latex</title>
<polygon fill="none" stroke="black" points="144,-108 90,-108 90,-72 144,-72 144,-108"/>
<text text-anchor="middle" x="117" y="-86.3" font-family="Times,serif" font-size="14.00">Latex</text>
</g>
<!-- R&#45;&gt;Latex -->
<g id="edge4" class="edge"><title>R&#45;&gt;Latex</title>
<path fill="none" stroke="black" d="M54.4029,-115.199C62.5689,-111.858 71.703,-108.122 80.3848,-104.57"/>
<polygon fill="black" stroke="black" points="81.9887,-107.695 89.919,-100.67 79.3383,-101.216 81.9887,-107.695"/>
</g>
<!-- Rmd -->
<g id="node3" class="node"><title>Rmd</title>
<polygon fill="none" stroke="black" points="239.5,-180 185.5,-180 185.5,-144 239.5,-144 239.5,-180"/>
<text text-anchor="middle" x="212.5" y="-158.3" font-family="Times,serif" font-size="14.00">Rmd</text>
</g>
<!-- knitr&#45;&gt;Rmd -->
<g id="edge2" class="edge"><title>knitr&#45;&gt;Rmd</title>
<path fill="none" stroke="black" d="M144.045,-162C153.69,-162 164.809,-162 175.201,-162"/>
<polygon fill="black" stroke="black" points="175.27,-165.5 185.27,-162 175.27,-158.5 175.27,-165.5"/>
</g>
<!-- PDF -->
<g id="node4" class="node"><title>PDF</title>
<polygon fill="none" stroke="black" points="335,-180 281,-180 281,-144 335,-144 335,-180"/>
<text text-anchor="middle" x="308" y="-158.3" font-family="Times,serif" font-size="14.00">PDF</text>
</g>
<!-- Rmd&#45;&gt;PDF -->
<g id="edge3" class="edge"><title>Rmd&#45;&gt;PDF</title>
<path fill="none" stroke="black" d="M239.545,-162C249.19,-162 260.309,-162 270.701,-162"/>
<polygon fill="black" stroke="black" points="270.77,-165.5 280.77,-162 270.77,-158.5 270.77,-165.5"/>
</g>
<!-- listing -->
<g id="node6" class="node"><title>listing</title>
<polygon fill="none" stroke="black" points="239.5,-108 185.5,-108 185.5,-72 239.5,-72 239.5,-108"/>
<text text-anchor="middle" x="212.5" y="-86.3" font-family="Times,serif" font-size="14.00">listing</text>
</g>
<!-- Latex&#45;&gt;listing -->
<g id="edge5" class="edge"><title>Latex&#45;&gt;listing</title>
<path fill="none" stroke="black" d="M144.045,-90C153.69,-90 164.809,-90 175.201,-90"/>
<polygon fill="black" stroke="black" points="175.27,-93.5001 185.27,-90 175.27,-86.5001 175.27,-93.5001"/>
</g>
<!-- verbatim -->
<g id="node7" class="node"><title>verbatim</title>
<polygon fill="none" stroke="black" points="245,-36 180,-36 180,-0 245,-0 245,-36"/>
<text text-anchor="middle" x="212.5" y="-14.3" font-family="Times,serif" font-size="14.00">verbatim</text>
</g>
<!-- Latex&#45;&gt;verbatim -->
<g id="edge6" class="edge"><title>Latex&#45;&gt;verbatim</title>
<path fill="none" stroke="black" d="M141.594,-71.8314C153.221,-62.8779 167.405,-51.9558 179.95,-42.2955"/>
<polygon fill="black" stroke="black" points="182.126,-45.0372 187.914,-36.1628 177.855,-39.491 182.126,-45.0372"/>
</g>
</g>
</svg>
